<svg xmlns="http://www.w3.org/2000/svg" version="1.1" xmlns:xlink="http://www.w3.org/1999/xlink" width="1500" height="1500" viewBox="0 0 1500 1500"><rect width="1500" height="1500" x="0" y="0" id="background" stroke="transparent" fill="#111111"></rect><svg xml:space="preserve" width="1000" height="1000" data-version="2" data-id="lg_c0I2ox4xQE3kkoVCOB" viewBox="0 0 323 418" x="250" y="250"><rect width="100%" height="100%" fill="transparent"></rect><path fill="#b68935" d="M91.855 346.19q-3.81 3.98-7.79 5.71t-8.82 1.73q-6.75 0-10.38-3.38-3.63-3.37-6.92-12.02l-6.57-16.95q-2.08-4.67-3.98-6.84-1.91-2.16-6.23-2.16v18.69q0 7.95 1.3 11.33 1.29 3.37 6.14 7.7l-1.21 2.07h-31.14l-1.21-3.11q4.32-1.21 6.22-2.34 1.91-1.12 2.6-3.03.69-1.9.69-5.88v-44.98q0-8.3-1.3-11.68-1.29-3.37-6.14-7.52l1.39-2.25h30.1l1.21 2.77q-5.54 2.94-7.09 5.53-1.56 2.6-1.56 8.83v21.45h.52l20.59-23.36q1.55-1.9 2.16-3.37.6-1.47.78-3.37 0-1.21-1.39-4.67l-1.04-1.91 2.25-1.9h20.42l1.04 3.11-3.98 1.22q-4.85 2.07-9.17 6.92l-24.22 27.68q8.99.69 14.18 3.71 5.19 3.03 7.62 8.91l7.95 20.07q.87 2.25 2.08 3.2 1.21.95 3.11.95 2.77 0 6.4-2.76Z"></path><rect width="76.81" height="82.35" x="-38.41" y="-41.17" fill="none" rx="0" ry="0" transform="translate(53.95 312.96)"></rect><path fill="#b68935" d="M196.175 330.27q0 6.06.52 9.17.52 3.12 2.07 5.37 1.56 2.24 4.85 5.19l-1.39 2.07h-30.45l-1.03-3.11q3.98-1.04 5.79-2.17 1.82-1.12 2.42-3.11.61-1.99.61-5.97v-24.22h-30.62v16.78q0 6.06.52 9.26t1.99 5.36q1.47 2.16 4.75 5.11l-1.21 2.07h-30.44l-1.04-3.11q5.71-1.56 7.26-3.55 1.56-1.99 1.56-7.7v-44.98q0-8.3-1.3-11.68-1.29-3.37-6.31-7.52l1.38-2.25h29.41l1.21 2.77q-5.01 2.94-6.4 5.45-1.38 2.51-1.38 8.91v20.24h30.62v-15.92q0-8.3-1.3-11.68-1.3-3.37-6.31-7.52l1.38-2.25h29.41l1.39 2.77q-5.02 2.94-6.49 5.45-1.47 2.51-1.47 8.91z"></path><rect width="80.62" height="80.79" x="-40.31" y="-40.4" fill="none" rx="0" ry="0" transform="translate(164.32 312.18)"></rect><path fill="#b68935" d="M280.765 353.63q-18.51 0-28.28-11.77-9.78-11.76-9.78-30.1 0-18.34 9.87-30.19 9.86-11.85 28.54-11.85 11.94 0 19.46 4.59 7.53 4.58 7.53 12.02 0 7.27-6.06 11.42-6.05 4.15-15.22 4.15 5.19-5.53 5.19-15.05 0-5.54-3.37-9.26-3.38-3.71-8.74-3.71-9.86 0-14.45 11.24-4.58 11.25-4.58 26.64 0 9.86 2.85 17.99 2.86 8.14 8.31 12.89 5.45 4.76 12.54 4.76 8.13 0 13.58-3.37 5.45-3.38 9.95-9.43l2.07 1.56q-4.67 7.78-12.02 12.62-7.35 4.85-17.39 4.85"></path><rect width="67.47" height="83.91" x="-33.73" y="-41.95" fill="none" rx="0" ry="0" transform="translate(276.94 312.18)"></rect><path fill="#b68935" d="M19.175 411.3q-.79.83-1.62 1.19-.82.36-1.83.36-1.41 0-2.16-.71-.76-.7-1.44-2.5l-1.37-3.53q-.43-.97-.83-1.42-.39-.45-1.29-.45v3.89q0 1.66.27 2.36t1.27 1.6l-.25.43h-6.48l-.25-.65q.9-.25 1.3-.48.39-.24.54-.63.14-.4.14-1.23v-9.36q0-1.72-.27-2.43-.27-.7-1.28-1.56l.29-.47h6.26l.26.58q-1.16.61-1.48 1.15-.32.54-.32 1.83v4.47h.1l4.29-4.86q.32-.4.45-.7.12-.31.16-.71 0-.25-.29-.97l-.21-.39.46-.4h4.25l.22.65-.83.25q-1.01.43-1.91 1.44l-5.04 5.76q1.87.14 2.95.77t1.59 1.86l1.65 4.17q.18.47.44.67.25.2.64.2.58 0 1.34-.58Z"></path><rect width="15.98" height="17.14" x="-7.99" y="-8.57" fill="none" rx="0" ry="0" transform="translate(11.69 404.78)"></rect><path fill="#b68935" d="M29.075 410.47q0 1.08.69 1.08.68 0 1.33-.54l.29.36q-1.33 1.48-3.13 1.48-1.3 0-1.88-.67-.57-.67-.57-2.18v-7.13q0-.5-.47-.5h-1.12l-.1-.4q.72-.61 1.8-1 1.08-.4 2.16-.4.43 0 .72.22.28.21.28.57zm-3.63-13.36q0-.64.72-1.44.72-.79 1.33-.79.65 0 1.39.79.73.8.73 1.44 0 .69-.73 1.46-.74.78-1.39.78-.61 0-1.33-.78-.72-.77-.72-1.46"></path><rect width="7.27" height="17.97" x="-3.63" y="-8.98" fill="none" rx="0" ry="0" transform="translate(28.25 404.37)"></rect><path fill="#b68935" d="M49.775 410.47q0 1.08.69 1.08.68 0 1.33-.54l.29.36q-1.33 1.48-3.13 1.48-1.3 0-1.86-.67t-.56-2.18v-5.51q0-2.08-1.33-2.08-1.29 0-2.1 1.76t-.81 4.61q0 1.08.18 1.74.18.67.57 1.28l.29.36-.29.36h-5.22l-.21-.61.5-.11q.58-.14.76-.45.18-.3.18-1.2v-7.02q0-.69-.47-.69h-1.15l-.11-.39q.72-.62 1.8-1.01 1.08-.4 2.16-.4.47 0 .74.22.27.21.27.57v3.1q.5-1.69 1.8-2.83 1.29-1.13 2.73-1.13 1.55 0 2.25 1.01t.7 3.2z"></path><rect width="14.76" height="12.28" x="-7.38" y="-6.14" fill="none" rx="0" ry="0" transform="translate(45.2 407.21)"></rect><path fill="#b68935" d="M71.955 411.37q-1.33 1.48-3.13 1.48-1.12 0-1.66-.49-.54-.49-.72-1.6-.93 1.08-1.94 1.58-1.01.51-2.23.51-1.8 0-2.94-1.59-1.13-1.58-1.13-4.1 0-3.03 1.58-4.81 1.59-1.78 4.32-1.78 1.26 0 2.31.58v-4q0-.5-.47-.5h-1.23l-.14-.36q.72-.65 1.84-1.03 1.11-.38 2.19-.38.47 0 .76.2.29.2.29.56v14.83q0 1.08.68 1.08t1.33-.54Zm-7.81-.25q1.37 0 2.27-1.51v-7.74q-.72-.36-1.59-.36-3.02 0-3.02 5.22 0 2.12.59 3.25.6 1.14 1.75 1.14"></path><rect width="13.75" height="17.97" x="-6.88" y="-8.98" fill="none" rx="0" ry="0" transform="translate(65.58 404.37)"></rect><path fill="#b68935" d="M77.895 406.62q0-.47.16-.94t.45-.68l6.16-.25q0 1.18-.61 1.65z"></path><rect width="6.77" height="1.87" x="-3.38" y="-.94" fill="none" rx="0" ry="0" transform="translate(81.78 406.19)"></rect><path fill="#b68935" d="M106.735 407.99q0 1.26.1 1.9.11.65.44 1.12.32.47 1 1.08l-.28.43h-6.34l-.22-.65q.83-.21 1.21-.45.38-.23.5-.64.13-.42.13-1.25v-5.04h-6.37v3.5q0 1.26.11 1.92.1.67.41 1.12.31.45.99 1.06l-.25.43h-6.34l-.21-.65q1.18-.32 1.51-.73.32-.42.32-1.61v-9.36q0-1.72-.27-2.43-.27-.7-1.31-1.56l.29-.47h6.12l.25.58q-1.05.61-1.33 1.13-.29.52-.29 1.85v4.22h6.37v-3.32q0-1.72-.27-2.43-.27-.7-1.31-1.56l.28-.47h6.12l.29.58q-1.04.61-1.35 1.13-.3.52-.3 1.85z"></path><rect width="16.77" height="16.81" x="-8.38" y="-8.4" fill="none" rx="0" ry="0" transform="translate(100.5 404.62)"></rect><path fill="#b68935" d="M115.515 406.73q0-2.85 1.64-4.5 1.64-1.66 4.44-1.66 2.81 0 4.47 1.67 1.65 1.68 1.65 4.49 0 2.8-1.65 4.46-1.66 1.66-4.47 1.66-2.8 0-4.44-1.66-1.64-1.66-1.64-4.46m8.57.07q0-2.41-.69-3.94-.68-1.53-1.72-1.53-1.16 0-1.88 1.49t-.72 3.91q0 2.44.67 3.88t1.78 1.44q1.12 0 1.84-1.45.72-1.46.72-3.8"></path><rect width="12.2" height="12.28" x="-6.1" y="-6.14" fill="none" rx="0" ry="0" transform="translate(122.11 407.21)"></rect><path fill="#b68935" d="M143.275 409.25q-.51 1.58-1.75 2.59-1.24 1.01-2.65 1.01-1.58 0-2.34-1.01-.75-1.01-.75-3.1v-5.87q0-.5-.47-.5h-1.12l-.1-.4q.72-.61 1.8-1 1.08-.4 2.12-.4.47 0 .74.22.27.21.27.57v7.2q0 1.23.36 1.89.36.67 1.01.67 1.33 0 2.14-1.64t.81-4.27q0-1.4-.2-2.17-.2-.78-.7-1.35l-.33-.4.29-.32 4.14-.33v9.83q0 1.08.65 1.08.68 0 1.33-.54l.29.36q-1.26 1.48-3.13 1.48-1.37 0-1.89-.8-.52-.79-.52-2.8"></path><rect width="14.72" height="12.28" x="-7.36" y="-6.14" fill="none" rx="0" ry="0" transform="translate(141.96 407.21)"></rect><path fill="#b68935" d="M158.535 403.02q0 .9.7 1.46.7.55 2.14 1.24 1.19.57 1.84.99.65.41 1.13 1.1.49.68.49 1.62 0 1.54-1.46 2.48t-3.9.94q-1.84 0-3.03-.67-1.19-.67-1.19-1.75 0-.72.54-1.2.54-.49 1.34-.49.61 0 1.22.25-.61.47-.61 1.52 0 .72.5 1.11.51.4 1.23.4.82 0 1.42-.43.59-.44.59-1.23 0-.75-.59-1.2-.6-.45-1.86-1.07-1.15-.54-1.85-.99-.7-.45-1.21-1.2-.5-.76-.5-1.84 0-1.62 1.37-2.55 1.37-.94 3.45-.94 1.84 0 3.01.68 1.17.69 1.17 1.77 0 .83-.5 1.22-.51.4-1.3.4-.76 0-1.33-.33.65-.61.65-1.54 0-.62-.47-.99-.47-.38-1.23-.38-.82 0-1.29.47-.47.46-.47 1.15"></path><rect width="9.58" height="12.28" x="-4.79" y="-6.14" fill="none" rx="0" ry="0" transform="translate(160.54 407.21)"></rect><path fill="#b68935" d="M178.695 411.66q1.04 0 1.84-.38.79-.38 1.54-1.28l.44.33q-.83 1.18-2.11 1.85-1.28.67-2.79.67-1.66 0-2.97-.8-1.31-.79-2.07-2.17-.76-1.39-.76-3.15 0-2.81 1.71-4.49 1.71-1.67 4.56-1.67 2.01 0 3.29.95 1.28.96 1.28 2.47 0 1.73-1.46 2.75-1.46 1.03-3.98 1.03-1 0-1.83-.14.18 1.87 1.08 2.95.9 1.08 2.23 1.08m-1.01-10.23q-1.11 0-1.74 1.35-.63 1.35-.63 3.77v.57q.39 0 .97-.07 1.51-.18 2.32-.99.81-.81.81-2.14 0-1.08-.49-1.78-.48-.71-1.24-.71"></path><rect width="10.84" height="12.28" x="-5.42" y="-6.14" fill="none" rx="0" ry="0" transform="translate(177.74 407.21)"></rect><path fill="#b68935" d="M189.245 406.62q0-.47.16-.94t.45-.68l6.16-.25q0 1.18-.62 1.65z"></path><rect width="6.77" height="1.87" x="-3.38" y="-.94" fill="none" rx="0" ry="0" transform="translate(193.13 406.19)"></rect><path fill="#b68935" d="M210.555 412.85q-3.85 0-5.89-2.45-2.03-2.45-2.03-6.27 0-3.81 2.05-6.28 2.05-2.46 5.94-2.46 2.49 0 4.05.95 1.57.95 1.57 2.5 0 1.51-1.26 2.38-1.26.86-3.17.86 1.08-1.15 1.08-3.13 0-1.15-.7-1.93-.7-.77-1.82-.77-2.05 0-3.01 2.34-.95 2.34-.95 5.54 0 2.06.59 3.75.6 1.69 1.73 2.68 1.14.99 2.61.99 1.69 0 2.83-.7 1.13-.7 2.07-1.96l.43.32q-.97 1.62-2.5 2.63-1.53 1.01-3.62 1.01"></path><rect width="14.04" height="17.46" x="-7.02" y="-8.73" fill="none" rx="0" ry="0" transform="translate(210.16 404.62)"></rect><path fill="#b68935" d="M226.895 404.57q-.75.43-1.8.43-.75 0-1.18-.45-.44-.45-.44-1.28 0-1.22 1.21-1.96t3.15-.74q2.3 0 3.62 1.01 1.31 1.01 1.31 2.73v6.23q0 1.01.72 1.01.69 0 1.33-.54l.29.36q-1.33 1.48-3.17 1.48-1.08 0-1.63-.54-.56-.54-.67-1.7h-.14q-.58 1.05-1.53 1.64-.96.6-2.18.6-1.37 0-2.2-.85-.83-.85-.83-2.21 0-1.55 1.48-2.45 1.48-.9 4-.9.46 0 1.33.07v-1.8q0-1.76-.43-2.54-.44-.77-1.41-.77-.68 0-1.08.43-.39.43-.39 1.12 0 1.08.64 1.62m.54 6.48q2.13 0 2.13-3.86-1.8 0-2.7.6-.9.59-.9 1.67 0 .72.39 1.15.4.44 1.08.44"></path><rect width="12.35" height="12.28" x="-6.17" y="-6.14" fill="none" rx="0" ry="0" transform="translate(229.43 407.21)"></rect><path fill="#b68935" d="M244.935 412.85q-1.48 0-2.12-.67-.65-.67-.65-2.18v-7.63h-1.8q0-.61.07-.79.07-.18.43-.29 1.19-.32 1.87-1.01.69-.68 1.12-1.98.11-.39.36-.48.25-.09 1.22-.09v3.24h2.96q0 .46-.15.84-.14.38-.39.56h-2.42v8.1q0 1.08.9 1.08.4 0 .89-.25.48-.25.88-.69l.29.36q-1.55 1.88-3.46 1.88"></path><rect width="8.03" height="15.12" x="-4.01" y="-7.56" fill="none" rx="0" ry="0" transform="translate(244.88 405.79)"></rect><path fill="#b68935" d="M258.725 404.57q-.76.43-1.8.43-.76 0-1.19-.45-.43-.45-.43-1.28 0-1.22 1.2-1.96 1.21-.74 3.15-.74 2.31 0 3.62 1.01 1.32 1.01 1.32 2.73v6.23q0 1.01.72 1.01.68 0 1.33-.54l.29.36q-1.34 1.48-3.17 1.48-1.08 0-1.64-.54-.56-.54-.67-1.7h-.14q-.58 1.05-1.53 1.64-.95.6-2.18.6-1.37 0-2.19-.85-.83-.85-.83-2.21 0-1.55 1.47-2.45 1.48-.9 4-.9.47 0 1.33.07v-1.8q0-1.76-.43-2.54-.43-.77-1.4-.77-.69 0-1.08.43-.4.43-.4 1.12 0 1.08.65 1.62m.54 6.48q2.12 0 2.12-3.86-1.8 0-2.7.6-.9.59-.9 1.67 0 .72.4 1.15.39.44 1.08.44"></path><rect width="12.35" height="12.28" x="-6.17" y="-6.14" fill="none" rx="0" ry="0" transform="translate(261.26 407.21)"></rect><path fill="#b68935" d="M285.295 410.47q0 1.08.68 1.08t1.33-.54l.29.36q-1.33 1.48-3.13 1.48-1.3 0-1.86-.67-.55-.67-.55-2.18v-5.51q0-2.08-1.34-2.08-1.29 0-2.1 1.76t-.81 4.61q0 1.08.18 1.74.18.67.57 1.28l.29.36-.29.36h-5.22l-.21-.61.5-.11q.58-.14.76-.45.18-.3.18-1.2v-7.02q0-.69-.47-.69h-1.15l-.11-.39q.72-.62 1.8-1.01 1.08-.4 2.16-.4.47 0 .74.22.27.21.27.57v3.1q.5-1.69 1.8-2.83 1.29-1.13 2.73-1.13 1.55 0 2.25 1.01.71 1.01.71 3.2z"></path><rect width="14.76" height="12.28" x="-7.38" y="-6.14" fill="none" rx="0" ry="0" transform="translate(280.71 407.21)"></rect><path fill="#b68935" d="M298.255 410.47q0 1.08.68 1.08t1.33-.54l.29.36q-1.33 1.48-3.13 1.48-1.3 0-1.87-.67-.58-.67-.58-2.18v-7.13q0-.5-.47-.5h-1.11l-.11-.4q.72-.61 1.8-1 1.08-.4 2.16-.4.43 0 .72.22.29.21.29.57zm-3.64-13.36q0-.64.72-1.44.72-.79 1.33-.79.65 0 1.39.79.74.8.74 1.44 0 .69-.74 1.46-.74.78-1.39.78-.61 0-1.33-.78-.72-.77-.72-1.46"></path><rect width="7.27" height="17.97" x="-3.63" y="-8.98" fill="none" rx="0" ry="0" transform="translate(297.42 404.37)"></rect><path fill="#b68935" d="M310.595 404.57q-.75.43-1.8.43-.75 0-1.18-.45-.44-.45-.44-1.28 0-1.22 1.21-1.96t3.15-.74q2.3 0 3.62 1.01 1.31 1.01 1.31 2.73v6.23q0 1.01.72 1.01.69 0 1.33-.54l.29.36q-1.33 1.48-3.17 1.48-1.08 0-1.63-.54-.56-.54-.67-1.7h-.14q-.58 1.05-1.53 1.64-.96.6-2.18.6-1.37 0-2.2-.85-.83-.85-.83-2.21 0-1.55 1.48-2.45 1.48-.9 4-.9.46 0 1.33.07v-1.8q0-1.76-.43-2.54-.44-.77-1.41-.77-.68 0-1.08.43-.39.43-.39 1.12 0 1.08.64 1.62m.54 6.48q2.13 0 2.13-3.86-1.8 0-2.7.6-.9.59-.9 1.67 0 .72.39 1.15.4.44 1.08.44"></path><rect width="12.35" height="12.28" x="-6.17" y="-6.14" fill="none" rx="0" ry="0" transform="translate(313.13 407.21)"></rect><path fill="#b68935" d="m48.144 197.388 83.136-83.2s17.36 11.952 55.51 0l83.133 83.2s0 27.691-110.888 27.691c-110.89 0-110.89-27.69-110.89-27.69m88.37-104.186.002-.26c-13.798-2.22-25.057-12.058-29.386-25.034a10.839 10.839 0 0 0 .01 10.061 10.78 10.78 0 0 0 2.807 3.399c.01.116.046.227.062.338-.25.102-.5.175-.744.3a10.283 10.283 0 0 0-4.315 13.884c1.549 2.939 4.328 4.778 7.362 5.305.231.677.502 1.346.845 1.997a14.253 14.253 0 0 0 19.256 5.983 14.182 14.182 0 0 0 6.053-6.14 25.73 25.73 0 0 1-1.953-9.833"></path><path fill="#b68935" d="M202.03 60.852a20.227 20.227 0 0 0 .569-4.698 20.242 20.242 0 0 0-12.32-18.638 20.871 20.871 0 0 0 4.042-12.359c0-11.602-9.408-21.008-21.008-21.008-11.61 0-21.016 9.406-21.016 21.008 0 .438.042.867.065 1.298a31.23 31.23 0 0 0-9.908-1.624c-17.3 0-31.323 14.024-31.323 31.323s14.024 31.32 31.323 31.32c.289 0 .566-.032.853-.04a19.947 19.947 0 0 0 19.091 25.713c11.017 0 19.95-8.933 19.95-19.945a19.97 19.97 0 0 0-.918-5.985c.309.011.604.042.917.042a20.544 20.544 0 0 0 20.545-20.544 20.46 20.46 0 0 0-.862-5.863"></path></svg></svg>