<?xml version="1.0" encoding="UTF-8" standalone="no"?>
<!-- Created with Inkscape (http://www.inkscape.org/) -->

<svg
   version="1.1"
   id="svg2"
   width="1500"
   height="1500"
   viewBox="0 0 1500 1500"
   xmlns="http://www.w3.org/2000/svg"
   xmlns:svg="http://www.w3.org/2000/svg">
  <defs
     id="defs6" />
  <g
     id="g8"
     transform="matrix(1.3333333,0,0,1.3333333,0,3.75e-5)">
    <g
       id="g10">
      <path
         d="M 0,0 H 1125 V 1125 H 0 Z"
         style="fill:#111111;fill-opacity:1;fill-rule:nonzero;stroke:none"
         id="path12" />
      <path
         d="m 437.539,808.656 c -4.559,4.758 -9.215,8.176 -13.977,10.242 -4.761,2.071 -10.035,3.106 -15.828,3.106 -8.074,0 -14.281,-2.024 -18.621,-6.066 -4.343,-4.032 -8.48,-11.219 -12.418,-21.567 l -11.789,-30.41 c -2.488,-5.586 -4.867,-9.68 -7.14,-12.273 -2.286,-2.586 -6.012,-3.876 -11.176,-3.876 v 33.532 c 0,9.511 0.777,16.289 2.332,20.332 1.543,4.031 5.215,8.636 11.016,13.816 l -2.172,3.711 h -55.871 l -2.172,-5.578 c 5.168,-1.449 8.886,-2.848 11.16,-4.199 2.285,-1.34 3.84,-3.153 4.664,-5.438 0.824,-2.273 1.238,-5.789 1.238,-10.55 v -80.704 c 0,-9.929 -0.777,-16.914 -2.332,-20.957 -1.543,-4.031 -5.215,-8.531 -11.015,-13.492 l 2.492,-4.039 h 54.008 l 2.171,4.969 c -6.629,3.519 -10.867,6.824 -12.722,9.926 -1.867,3.109 -2.797,8.39 -2.797,15.839 v 38.489 h 0.93 l 36.945,-41.914 c 1.855,-2.274 3.144,-4.289 3.875,-6.047 0.719,-1.758 1.183,-3.774 1.398,-6.047 0,-1.445 -0.828,-4.238 -2.492,-8.379 l -1.867,-3.426 4.039,-3.41 h 36.637 l 1.867,5.582 -7.141,2.188 c -5.801,2.476 -11.285,6.613 -16.453,12.418 l -43.457,49.664 c 10.754,0.824 19.234,3.043 25.441,6.656 6.208,3.625 10.766,8.953 13.672,15.988 l 14.266,36.008 c 1.039,2.691 2.285,4.605 3.73,5.742 1.45,1.137 3.309,1.707 5.582,1.707 3.313,0 7.141,-1.652 11.481,-4.953 z"
         style="fill:#b68935;fill-opacity:1;fill-rule:nonzero;stroke:none"
         id="path14" />
      <path
         d="m 624.715,780.09 c 0,7.25 0.312,12.734 0.933,16.453 0.622,3.73 1.86,6.945 3.715,9.637 1.867,2.679 4.766,5.781 8.703,9.312 l -2.496,3.711 h -54.632 l -1.848,-5.578 c 4.758,-1.246 8.222,-2.543 10.387,-3.895 2.175,-1.339 3.625,-3.199 4.343,-5.578 0.727,-2.382 1.094,-5.953 1.094,-10.714 V 749.98 h -54.941 v 30.11 c 0,7.25 0.312,12.785 0.933,16.613 0.621,3.828 1.813,7.035 3.571,9.617 1.757,2.586 4.597,5.641 8.523,9.172 l -2.172,3.711 h -54.617 l -1.867,-5.578 c 6.832,-1.867 11.172,-3.988 13.027,-6.371 1.867,-2.379 2.801,-6.984 2.801,-13.816 v -80.704 c 0,-9.929 -0.777,-16.914 -2.332,-20.957 -1.547,-4.031 -5.32,-8.531 -11.324,-13.492 l 2.476,-4.039 h 52.77 l 2.172,4.969 c -5.993,3.519 -9.821,6.777 -11.485,9.781 -1.652,3 -2.476,8.332 -2.476,15.984 v 36.317 h 54.941 v -28.563 c 0,-9.929 -0.777,-16.914 -2.332,-20.957 -1.555,-4.031 -5.332,-8.531 -11.324,-13.492 l 2.476,-4.039 h 52.77 l 2.496,4.969 c -6.008,3.519 -9.887,6.777 -11.648,9.781 -1.758,3 -2.637,8.332 -2.637,15.984 z"
         style="fill:#b68935;fill-opacity:1;fill-rule:nonzero;stroke:none"
         id="path16" />
      <path
         d="m 776.492,822.004 c -22.14,0 -39.054,-7.039 -50.742,-21.117 -11.699,-14.071 -17.547,-32.071 -17.547,-54.008 0,-21.938 5.902,-39.996 17.707,-54.168 11.797,-14.176 28.867,-21.262 51.211,-21.262 14.281,0 25.922,2.742 34.914,8.235 9.008,5.476 13.512,12.668 13.512,21.566 0,8.695 -3.625,15.527 -10.871,20.492 -7.238,4.961 -16.34,7.446 -27.309,7.446 6.207,-6.618 9.309,-15.618 9.309,-27.004 0,-6.629 -2.016,-12.164 -6.043,-16.618 -4.043,-4.437 -9.274,-6.656 -15.684,-6.656 -11.793,0 -20.437,6.723 -25.926,20.168 -5.48,13.457 -8.218,29.391 -8.218,47.801 0,11.793 1.703,22.555 5.113,32.277 3.422,9.739 8.391,17.446 14.91,23.129 6.52,5.692 14.02,8.539 22.5,8.539 9.727,0 17.848,-2.015 24.367,-6.047 6.52,-4.043 12.469,-9.683 17.852,-16.918 l 3.715,2.797 c -5.586,9.309 -12.778,16.856 -21.567,22.645 -8.793,5.801 -19.195,8.703 -31.203,8.703"
         style="fill:#b68935;fill-opacity:1;fill-rule:nonzero;stroke:none"
         id="path18" />
      <path
         d="m 307.133,925.477 c -0.945,0.996 -1.914,1.707 -2.906,2.136 -0.981,0.43 -2.079,0.645 -3.286,0.645 -1.687,0 -2.976,-0.422 -3.875,-1.274 -0.91,-0.836 -1.769,-2.332 -2.582,-4.484 l -2.461,-6.332 c -0.511,-1.16 -1.007,-2.012 -1.488,-2.551 -0.465,-0.535 -1.238,-0.805 -2.316,-0.805 v 6.977 c 0,1.988 0.164,3.399 0.488,4.234 0.32,0.84 1.082,1.797 2.277,2.872 l -0.449,0.773 H 278.91 l -0.449,-1.168 c 1.074,-0.297 1.851,-0.586 2.332,-0.859 0.465,-0.289 0.789,-0.664 0.969,-1.133 0.168,-0.477 0.25,-1.211 0.25,-2.207 v -16.793 c 0,-2.059 -0.16,-3.512 -0.485,-4.36 -0.32,-0.836 -1.086,-1.769 -2.297,-2.8 l 0.52,-0.84 h 11.234 l 0.465,1.039 c -1.387,0.73 -2.273,1.418 -2.656,2.062 -0.383,0.649 -0.574,1.743 -0.574,3.286 v 8.019 h 0.179 l 7.7,-8.719 c 0.382,-0.48 0.652,-0.898 0.808,-1.257 0.141,-0.372 0.239,-0.797 0.285,-1.274 0,-0.301 -0.171,-0.879 -0.519,-1.742 l -0.379,-0.699 0.828,-0.715 h 7.625 l 0.395,1.164 -1.489,0.449 c -1.211,0.516 -2.351,1.375 -3.429,2.582 l -9.043,10.336 c 2.238,0.168 4.004,0.629 5.293,1.383 1.293,0.754 2.246,1.863 2.855,3.336 l 2.961,7.484 c 0.215,0.559 0.477,0.961 0.789,1.199 0.297,0.243 0.68,0.36 1.149,0.36 0.691,0 1.492,-0.348 2.402,-1.039 z"
         style="fill:#b68935;fill-opacity:1;fill-rule:nonzero;stroke:none"
         id="path20" />
      <path
         d="m 324.895,923.988 c 0,1.293 0.414,1.938 1.238,1.938 0.812,0 1.609,-0.321 2.387,-0.969 l 0.519,0.648 c -1.59,1.77 -3.461,2.653 -5.613,2.653 -1.559,0 -2.68,-0.399 -3.375,-1.199 -0.684,-0.801 -1.024,-2.106 -1.024,-3.914 v -12.793 c 0,-0.598 -0.281,-0.895 -0.843,-0.895 h -2.008 l -0.18,-0.719 c 0.859,-0.73 1.938,-1.328 3.231,-1.793 1.289,-0.48 2.582,-0.718 3.875,-0.718 0.515,0 0.945,0.132 1.293,0.394 0.332,0.25 0.5,0.594 0.5,1.024 z m -6.512,-23.968 c 0,-0.766 0.429,-1.629 1.293,-2.586 0.859,-0.946 1.656,-1.418 2.383,-1.418 0.781,0 1.609,0.472 2.496,1.418 0.871,0.957 1.308,1.82 1.308,2.586 0,0.824 -0.437,1.695 -1.308,2.617 -0.887,0.933 -1.715,1.398 -2.496,1.398 -0.727,0 -1.524,-0.465 -2.383,-1.398 -0.864,-0.922 -1.293,-1.793 -1.293,-2.617"
         style="fill:#b68935;fill-opacity:1;fill-rule:nonzero;stroke:none"
         id="path22" />
      <path
         d="m 362.035,923.988 c 0,1.293 0.414,1.938 1.238,1.938 0.817,0 1.61,-0.321 2.387,-0.969 l 0.52,0.648 c -1.59,1.77 -3.461,2.653 -5.614,2.653 -1.554,0 -2.668,-0.399 -3.339,-1.199 -0.668,-0.801 -1.004,-2.106 -1.004,-3.914 v -9.887 c 0,-2.485 -0.797,-3.731 -2.387,-3.731 -1.543,0 -2.797,1.055 -3.766,3.157 -0.968,2.105 -1.453,4.863 -1.453,8.273 0,1.293 0.106,2.332 0.321,3.121 0.214,0.801 0.558,1.567 1.023,2.297 l 0.519,0.648 -0.519,0.645 h -9.367 l -0.375,-1.094 0.898,-0.199 c 0.692,-0.168 1.149,-0.437 1.363,-0.809 0.215,-0.355 0.321,-1.074 0.321,-2.152 V 910.82 c 0,-0.828 -0.281,-1.238 -0.844,-1.238 h -2.062 l -0.196,-0.699 c 0.86,-0.742 1.938,-1.348 3.227,-1.813 1.293,-0.48 2.586,-0.718 3.879,-0.718 0.562,0 1.004,0.132 1.328,0.394 0.32,0.25 0.484,0.594 0.484,1.024 v 5.562 c 0.598,-2.023 1.672,-3.715 3.227,-5.078 1.543,-1.352 3.176,-2.027 4.898,-2.027 1.856,0 3.199,0.605 4.039,1.812 0.836,1.207 1.254,3.121 1.254,5.742 z"
         style="fill:#b68935;fill-opacity:1;fill-rule:nonzero;stroke:none"
         id="path24" />
      <path
         d="m 401.832,925.605 c -1.59,1.77 -3.461,2.653 -5.613,2.653 -1.34,0 -2.336,-0.293 -2.981,-0.879 -0.644,-0.586 -1.078,-1.543 -1.293,-2.871 -1.109,1.293 -2.269,2.238 -3.48,2.836 -1.207,0.609 -2.539,0.914 -4,0.914 -2.153,0 -3.91,-0.949 -5.274,-2.852 -1.351,-1.89 -2.031,-4.34 -2.031,-7.355 0,-3.625 0.945,-6.5 2.836,-8.633 1.902,-2.129 4.488,-3.191 7.754,-3.191 1.504,0 2.887,0.347 4.145,1.039 v -7.176 c 0,-0.598 -0.282,-0.899 -0.844,-0.899 h -2.207 l -0.254,-0.644 c 0.863,-0.777 1.965,-1.395 3.305,-1.848 1.324,-0.457 2.636,-0.683 3.929,-0.683 0.559,0 1.016,0.121 1.364,0.359 0.343,0.238 0.519,0.574 0.519,1.004 v 26.609 c 0,1.293 0.406,1.938 1.219,1.938 0.812,0 1.609,-0.321 2.386,-0.969 z m -14.012,-0.449 c 1.637,0 2.996,-0.902 4.075,-2.711 v -13.886 c -0.864,-0.43 -1.813,-0.645 -2.856,-0.645 -3.613,0 -5.418,3.121 -5.418,9.363 0,2.539 0.352,4.481 1.059,5.832 0.718,1.364 1.765,2.047 3.14,2.047"
         style="fill:#b68935;fill-opacity:1;fill-rule:nonzero;stroke:none"
         id="path26" />
      <path
         d="m 412.492,917.082 c 0,-0.562 0.094,-1.125 0.285,-1.687 0.192,-0.563 0.461,-0.969 0.809,-1.219 l 11.051,-0.449 c 0,1.41 -0.364,2.398 -1.094,2.961 z"
         style="fill:#b68935;fill-opacity:1;fill-rule:nonzero;stroke:none"
         id="path28" />
      <path
         d="m 464.238,919.539 c 0,1.508 0.059,2.645 0.18,3.41 0.129,0.778 0.394,1.446 0.789,2.008 0.383,0.563 0.981,1.211 1.793,1.938 l -0.5,0.773 h -11.379 l -0.394,-1.168 c 0.992,-0.25 1.718,-0.52 2.171,-0.805 0.454,-0.277 0.754,-0.66 0.899,-1.148 0.156,-0.504 0.234,-1.25 0.234,-2.246 v -9.043 h -11.429 v 6.281 c 0,1.508 0.062,2.656 0.195,3.445 0.121,0.801 0.363,1.473 0.734,2.008 0.371,0.539 0.965,1.176 1.778,1.903 l -0.45,0.773 h -11.375 l -0.375,-1.168 c 1.411,-0.383 2.313,-0.816 2.707,-1.309 0.383,-0.503 0.575,-1.464 0.575,-2.89 v -16.793 c 0,-2.059 -0.161,-3.512 -0.485,-4.36 -0.32,-0.836 -1.105,-1.769 -2.347,-2.8 l 0.519,-0.84 h 10.981 l 0.449,1.039 c -1.258,0.73 -2.051,1.406 -2.387,2.027 -0.348,0.621 -0.519,1.727 -0.519,3.321 v 7.57 h 11.429 v -5.957 c 0,-2.059 -0.164,-3.512 -0.488,-4.36 -0.32,-0.836 -1.105,-1.769 -2.348,-2.8 l 0.5,-0.84 h 10.981 l 0.523,1.039 c -1.246,0.73 -2.051,1.406 -2.422,2.027 -0.359,0.621 -0.539,1.727 -0.539,3.321 z"
         style="fill:#b68935;fill-opacity:1;fill-rule:nonzero;stroke:none"
         id="path30" />
      <path
         d="m 479.992,917.277 c 0,-3.406 0.981,-6.097 2.942,-8.074 1.961,-1.984 4.617,-2.976 7.964,-2.976 3.364,0 6.036,1 8.024,2.996 1.973,2.007 2.961,4.695 2.961,8.054 0,3.352 -0.988,6.02 -2.961,8.004 -1.988,1.985 -4.66,2.977 -8.024,2.977 -3.347,0 -6.003,-0.992 -7.964,-2.977 -1.961,-1.984 -2.942,-4.652 -2.942,-8.004 m 15.375,0.129 c 0,-2.883 -0.41,-5.242 -1.238,-7.07 -0.813,-1.832 -1.84,-2.746 -3.086,-2.746 -1.387,0 -2.512,0.89 -3.371,2.672 -0.863,1.785 -1.293,4.121 -1.293,7.015 0,2.922 0.402,5.243 1.203,6.965 0.801,1.723 1.863,2.582 3.191,2.582 1.34,0 2.442,-0.867 3.301,-2.601 0.864,-1.746 1.293,-4.02 1.293,-6.817"
         style="fill:#b68935;fill-opacity:1;fill-rule:nonzero;stroke:none"
         id="path32" />
      <path
         d="m 529.801,921.801 c -0.61,1.89 -1.656,3.437 -3.141,4.648 -1.484,1.207 -3.07,1.809 -4.754,1.809 -1.89,0 -3.289,-0.602 -4.199,-1.809 -0.898,-1.211 -1.348,-3.062 -1.348,-5.562 v -10.535 c 0,-0.598 -0.281,-0.895 -0.843,-0.895 h -2.008 l -0.18,-0.719 c 0.863,-0.73 1.938,-1.328 3.231,-1.793 1.293,-0.48 2.558,-0.718 3.804,-0.718 0.563,0 1.004,0.132 1.328,0.394 0.321,0.25 0.485,0.594 0.485,1.024 v 12.917 c 0,1.473 0.215,2.602 0.644,3.391 0.43,0.801 1.035,1.203 1.813,1.203 1.59,0 2.871,-0.98 3.84,-2.941 0.968,-1.965 1.453,-4.516 1.453,-7.664 0,-1.676 -0.121,-2.973 -0.36,-3.895 -0.238,-0.929 -0.656,-1.738 -1.257,-2.422 l -0.59,-0.714 0.519,-0.575 7.43,-0.593 v 17.636 c 0,1.293 0.387,1.938 1.164,1.938 0.816,0 1.609,-0.321 2.387,-0.969 l 0.519,0.648 c -1.504,1.77 -3.379,2.653 -5.613,2.653 -1.641,0 -2.77,-0.477 -3.391,-1.434 -0.625,-0.945 -0.933,-2.621 -0.933,-5.023"
         style="fill:#b68935;fill-opacity:1;fill-rule:nonzero;stroke:none"
         id="path34" />
      <path
         d="m 557.18,910.621 c 0,1.078 0.418,1.949 1.258,2.621 0.835,0.656 2.117,1.399 3.839,2.223 1.422,0.683 2.524,1.277 3.301,1.777 0.777,0.492 1.453,1.149 2.027,1.973 0.586,0.816 0.879,1.785 0.879,2.91 0,1.84 -0.875,3.324 -2.621,4.449 -1.746,1.125 -4.078,1.684 -6.996,1.684 -2.203,0 -4.015,-0.399 -5.437,-1.199 -1.422,-0.801 -2.137,-1.848 -2.137,-3.141 0,-0.863 0.324,-1.578 0.973,-2.152 0.644,-0.586 1.445,-0.879 2.402,-0.879 0.73,0 1.461,0.148 2.187,0.445 -0.726,0.563 -1.093,1.473 -1.093,2.73 0,0.86 0.3,1.524 0.898,1.989 0.61,0.48 1.344,0.719 2.207,0.719 0.981,0 1.828,-0.258 2.547,-0.77 0.707,-0.527 1.059,-1.262 1.059,-2.207 0,-0.898 -0.352,-1.617 -1.059,-2.152 -0.719,-0.539 -1.828,-1.18 -3.336,-1.922 -1.375,-0.645 -2.484,-1.239 -3.32,-1.778 -0.836,-0.535 -1.563,-1.253 -2.172,-2.152 -0.598,-0.91 -0.895,-2.008 -0.895,-3.301 0,-1.937 0.817,-3.465 2.457,-4.574 1.637,-1.125 3.704,-1.687 6.192,-1.687 2.199,0 4,0.406 5.398,1.218 1.399,0.828 2.102,1.887 2.102,3.176 0,0.992 -0.301,1.723 -0.899,2.191 -0.609,0.477 -1.386,0.715 -2.332,0.715 -0.91,0 -1.707,-0.195 -2.386,-0.589 0.777,-0.731 1.164,-1.653 1.164,-2.766 0,-0.738 -0.282,-1.332 -0.844,-1.774 -0.559,-0.457 -1.297,-0.683 -2.203,-0.683 -0.985,0 -1.754,0.281 -2.317,0.844 -0.562,0.55 -0.843,1.238 -0.843,2.062"
         style="fill:#b68935;fill-opacity:1;fill-rule:nonzero;stroke:none"
         id="path36" />
      <path
         d="m 593.352,926.125 c 1.246,0 2.343,-0.227 3.3,-0.684 0.946,-0.453 1.868,-1.218 2.766,-2.296 l 0.789,0.593 c -0.992,1.41 -2.254,2.52 -3.785,3.321 -1.531,0.8 -3.203,1.199 -5.008,1.199 -1.984,0 -3.762,-0.477 -5.328,-1.434 -1.566,-0.945 -2.805,-2.242 -3.715,-3.894 -0.91,-1.66 -1.363,-3.547 -1.363,-5.653 0,-3.359 1.023,-6.047 3.066,-8.054 2.047,-1.996 4.774,-2.996 8.184,-2.996 2.402,0 4.371,0.566 5.902,1.703 1.531,1.148 2.297,2.625 2.297,4.433 0,2.071 -0.871,3.715 -2.617,4.934 -1.75,1.23 -4.129,1.848 -7.145,1.848 -1.195,0 -2.289,-0.083 -3.281,-0.25 0.215,2.234 0.859,4 1.938,5.293 1.074,1.289 2.41,1.937 4,1.937 m -1.813,-18.355 c -1.328,0 -2.367,0.808 -3.121,2.421 -0.754,1.614 -1.129,3.871 -1.129,6.766 v 1.02 c 0.465,0 1.047,-0.039 1.738,-0.125 1.809,-0.215 3.196,-0.805 4.164,-1.774 0.969,-0.969 1.454,-2.25 1.454,-3.84 0,-1.293 -0.293,-2.359 -0.879,-3.195 -0.575,-0.848 -1.317,-1.273 -2.227,-1.273"
         style="fill:#b68935;fill-opacity:1;fill-rule:nonzero;stroke:none"
         id="path38" />
      <path
         d="m 612.281,917.082 c 0,-0.562 0.098,-1.125 0.289,-1.687 0.192,-0.563 0.461,-0.969 0.805,-1.219 l 11.055,-0.449 c 0,1.41 -0.371,2.398 -1.114,2.961 z"
         style="fill:#b68935;fill-opacity:1;fill-rule:nonzero;stroke:none"
         id="path40" />
      <path
         d="m 650.516,928.258 c -4.606,0 -8.125,-1.465 -10.567,-4.395 -2.429,-2.929 -3.64,-6.679 -3.64,-11.25 0,-4.558 1.222,-8.312 3.675,-11.269 2.454,-2.942 6.004,-4.41 10.661,-4.41 2.976,0 5.398,0.566 7.265,1.703 1.879,1.136 2.817,2.633 2.817,4.484 0,1.809 -0.754,3.231 -2.262,4.27 -1.508,1.031 -3.403,1.543 -5.688,1.543 1.293,-1.375 1.938,-3.246 1.938,-5.614 0,-1.375 -0.418,-2.531 -1.254,-3.465 -0.84,-0.921 -1.926,-1.378 -3.266,-1.378 -2.453,0 -4.254,1.398 -5.402,4.195 -1.137,2.801 -1.703,6.113 -1.703,9.941 0,2.465 0.351,4.707 1.058,6.731 0.719,2.019 1.75,3.621 3.102,4.808 1.367,1.184 2.926,1.774 4.684,1.774 2.023,0 3.714,-0.418 5.078,-1.254 1.351,-0.84 2.59,-2.012 3.715,-3.516 l 0.773,0.571 c -1.16,1.941 -2.656,3.511 -4.488,4.722 -1.828,1.207 -3.996,1.809 -6.496,1.809"
         style="fill:#b68935;fill-opacity:1;fill-rule:nonzero;stroke:none"
         id="path42" />
      <path
         d="m 679.836,913.402 c -0.898,0.516 -1.973,0.774 -3.231,0.774 -0.898,0 -1.601,-0.27 -2.117,-0.809 -0.527,-0.539 -0.789,-1.305 -0.789,-2.297 0,-1.461 0.723,-2.632 2.172,-3.515 1.445,-0.887 3.332,-1.328 5.652,-1.328 2.75,0 4.915,0.605 6.493,1.812 1.57,1.207 2.351,2.84 2.351,4.899 v 11.175 c 0,1.211 0.43,1.813 1.293,1.813 0.824,0 1.621,-0.321 2.387,-0.969 l 0.519,0.648 c -1.589,1.77 -3.488,2.653 -5.687,2.653 -1.293,0 -2.266,-0.32 -2.926,-0.969 -0.668,-0.644 -1.07,-1.66 -1.203,-3.047 h -0.25 c -0.691,1.254 -1.609,2.235 -2.746,2.942 -1.149,0.718 -2.449,1.074 -3.91,1.074 -1.637,0 -2.953,-0.508 -3.946,-1.524 -0.996,-1.015 -1.492,-2.339 -1.492,-3.964 0,-1.856 0.887,-3.321 2.656,-4.395 1.77,-1.078 4.165,-1.617 7.176,-1.617 0.551,0 1.348,0.043 2.387,0.125 v -3.227 c 0,-2.105 -0.258,-3.625 -0.77,-4.558 -0.527,-0.922 -1.371,-1.383 -2.531,-1.383 -0.812,0 -1.457,0.258 -1.937,0.773 -0.465,0.512 -0.699,1.184 -0.699,2.008 0,1.293 0.382,2.262 1.148,2.906 m 0.969,11.629 c 2.547,0 3.82,-2.308 3.82,-6.926 -2.152,0 -3.766,0.36 -4.844,1.075 -1.074,0.707 -1.613,1.707 -1.613,2.996 0,0.863 0.23,1.551 0.699,2.066 0.477,0.524 1.125,0.789 1.938,0.789"
         style="fill:#b68935;fill-opacity:1;fill-rule:nonzero;stroke:none"
         id="path44" />
      <path
         d="m 712.203,928.258 c -1.769,0 -3.039,-0.399 -3.805,-1.199 -0.777,-0.801 -1.164,-2.106 -1.164,-3.914 v -13.688 h -3.23 c 0,-0.73 0.043,-1.203 0.125,-1.418 0.086,-0.215 0.34,-0.391 0.773,-0.519 1.422,-0.383 2.539,-0.989 3.356,-1.813 0.824,-0.816 1.492,-2 2.008,-3.555 0.132,-0.464 0.347,-0.754 0.644,-0.859 0.301,-0.109 1.031,-0.164 2.192,-0.164 v 5.816 h 5.308 c 0,0.547 -0.086,1.051 -0.265,1.504 -0.168,0.457 -0.403,0.793 -0.704,1.008 h -4.339 v 14.531 c 0,1.293 0.539,1.938 1.613,1.938 0.48,0 1.012,-0.149 1.597,-0.449 0.575,-0.297 1.102,-0.711 1.579,-1.235 l 0.519,0.645 c -1.851,2.25 -3.922,3.371 -6.207,3.371"
         style="fill:#b68935;fill-opacity:1;fill-rule:nonzero;stroke:none"
         id="path46" />
      <path
         d="m 736.945,913.402 c -0.906,0.516 -1.984,0.774 -3.226,0.774 -0.91,0 -1.621,-0.27 -2.137,-0.809 -0.516,-0.539 -0.773,-1.305 -0.773,-2.297 0,-1.461 0.718,-2.632 2.156,-3.515 1.445,-0.887 3.328,-1.328 5.652,-1.328 2.762,0 4.926,0.605 6.492,1.812 1.582,1.207 2.371,2.84 2.371,4.899 v 11.175 c 0,1.211 0.43,1.813 1.29,1.813 0.816,0 1.609,-0.321 2.386,-0.969 l 0.52,0.648 c -1.602,1.77 -3.496,2.653 -5.688,2.653 -1.289,0 -2.269,-0.32 -2.941,-0.969 -0.668,-0.644 -1.07,-1.66 -1.203,-3.047 h -0.25 c -0.696,1.254 -1.61,2.235 -2.746,2.942 -1.137,0.718 -2.438,1.074 -3.91,1.074 -1.641,0 -2.95,-0.508 -3.93,-1.524 -0.992,-1.015 -1.488,-2.339 -1.488,-3.964 0,-1.856 0.878,-3.321 2.636,-4.395 1.77,-1.078 4.164,-1.617 7.176,-1.617 0.563,0 1.359,0.043 2.387,0.125 v -3.227 c 0,-2.105 -0.258,-3.625 -0.77,-4.558 -0.515,-0.922 -1.351,-1.383 -2.511,-1.383 -0.829,0 -1.473,0.258 -1.938,0.773 -0.48,0.512 -0.719,1.184 -0.719,2.008 0,1.293 0.387,2.262 1.164,2.906 m 0.969,11.629 c 2.539,0 3.805,-2.308 3.805,-6.926 -2.153,0 -3.766,0.36 -4.844,1.075 -1.078,0.707 -1.613,1.707 -1.613,2.996 0,0.863 0.238,1.551 0.715,2.066 0.468,0.524 1.113,0.789 1.937,0.789"
         style="fill:#b68935;fill-opacity:1;fill-rule:nonzero;stroke:none"
         id="path48" />
      <path
         d="m 784.621,923.988 c 0,1.293 0.406,1.938 1.219,1.938 0.812,0 1.609,-0.321 2.387,-0.969 l 0.519,0.648 c -1.59,1.77 -3.461,2.653 -5.613,2.653 -1.559,0 -2.668,-0.399 -3.34,-1.199 -0.656,-0.801 -0.984,-2.106 -0.984,-3.914 v -9.887 c 0,-2.485 -0.805,-3.731 -2.407,-3.731 -1.543,0 -2.8,1.055 -3.769,3.157 -0.969,2.105 -1.453,4.863 -1.453,8.273 0,1.293 0.109,2.332 0.324,3.121 0.215,0.801 0.555,1.567 1.023,2.297 l 0.52,0.648 -0.52,0.645 h -9.367 l -0.375,-1.094 0.895,-0.199 c 0.695,-0.168 1.148,-0.437 1.363,-0.809 0.219,-0.355 0.324,-1.074 0.324,-2.152 V 910.82 c 0,-0.828 -0.281,-1.238 -0.844,-1.238 h -2.062 l -0.195,-0.699 c 0.859,-0.742 1.937,-1.348 3.226,-1.813 1.293,-0.48 2.586,-0.718 3.875,-0.718 0.563,0 1.008,0.132 1.328,0.394 0.325,0.25 0.485,0.594 0.485,1.024 v 5.562 c 0.601,-2.023 1.675,-3.715 3.23,-5.078 1.543,-1.352 3.176,-2.027 4.899,-2.027 1.855,0 3.199,0.605 4.039,1.812 0.847,1.207 1.273,3.121 1.273,5.742 z"
         style="fill:#b68935;fill-opacity:1;fill-rule:nonzero;stroke:none"
         id="path50" />
      <path
         d="m 807.875,923.988 c 0,1.293 0.406,1.938 1.219,1.938 0.812,0 1.609,-0.321 2.386,-0.969 l 0.52,0.648 c -1.59,1.77 -3.461,2.653 -5.617,2.653 -1.555,0 -2.672,-0.399 -3.352,-1.199 -0.695,-0.801 -1.043,-2.106 -1.043,-3.914 v -12.793 c 0,-0.598 -0.281,-0.895 -0.843,-0.895 h -1.993 l -0.195,-0.719 c 0.859,-0.73 1.938,-1.328 3.231,-1.793 1.289,-0.48 2.582,-0.718 3.874,-0.718 0.512,0 0.946,0.132 1.29,0.394 0.347,0.25 0.523,0.594 0.523,1.024 z m -6.531,-23.968 c 0,-0.766 0.429,-1.629 1.289,-2.586 0.863,-0.946 1.66,-1.418 2.387,-1.418 0.777,0 1.609,0.472 2.496,1.418 0.882,0.957 1.328,1.82 1.328,2.586 0,0.824 -0.446,1.695 -1.328,2.617 -0.887,0.933 -1.719,1.398 -2.496,1.398 -0.727,0 -1.524,-0.465 -2.387,-1.398 -0.86,-0.922 -1.289,-1.793 -1.289,-2.617"
         style="fill:#b68935;fill-opacity:1;fill-rule:nonzero;stroke:none"
         id="path52" />
      <path
         d="m 830.016,913.402 c -0.899,0.516 -1.973,0.774 -3.231,0.774 -0.898,0 -1.601,-0.27 -2.117,-0.809 -0.527,-0.539 -0.789,-1.305 -0.789,-2.297 0,-1.461 0.723,-2.632 2.172,-3.515 1.445,-0.887 3.332,-1.328 5.652,-1.328 2.75,0 4.914,0.605 6.492,1.812 1.571,1.207 2.352,2.84 2.352,4.899 v 11.175 c 0,1.211 0.43,1.813 1.293,1.813 0.824,0 1.621,-0.321 2.387,-0.969 l 0.519,0.648 c -1.59,1.77 -3.488,2.653 -5.687,2.653 -1.293,0 -2.266,-0.32 -2.926,-0.969 -0.668,-0.644 -1.071,-1.66 -1.203,-3.047 h -0.25 c -0.696,1.254 -1.61,2.235 -2.746,2.942 -1.149,0.718 -2.45,1.074 -3.911,1.074 -1.64,0 -2.953,-0.508 -3.949,-1.524 -0.992,-1.015 -1.488,-2.339 -1.488,-3.964 0,-1.856 0.887,-3.321 2.656,-4.395 1.77,-1.078 4.164,-1.617 7.176,-1.617 0.551,0 1.348,0.043 2.387,0.125 v -3.227 c 0,-2.105 -0.258,-3.625 -0.77,-4.558 -0.527,-0.922 -1.371,-1.383 -2.531,-1.383 -0.813,0 -1.461,0.258 -1.938,0.773 -0.464,0.512 -0.699,1.184 -0.699,2.008 0,1.293 0.383,2.262 1.149,2.906 m 0.968,11.629 c 2.547,0 3.821,-2.308 3.821,-6.926 -2.153,0 -3.766,0.36 -4.844,1.075 -1.078,0.707 -1.613,1.707 -1.613,2.996 0,0.863 0.23,1.551 0.699,2.066 0.476,0.524 1.125,0.789 1.937,0.789"
         style="fill:#b68935;fill-opacity:1;fill-rule:nonzero;stroke:none"
         id="path54" />
      <path
         d="M 359.109,541.664 508.277,392.383 c 0,0 31.149,21.445 99.598,0 l 149.164,149.281 c 0,0 0,49.688 -198.961,49.688 -198.965,0 -198.965,-49.684 -198.965,-49.684 m 158.559,-186.938 0.004,-0.464 c -24.758,-3.985 -44.961,-21.637 -52.727,-44.918 -2.957,5.656 -2.949,12.402 0.016,18.05 1.242,2.36 2.957,4.434 5.039,6.098 0.016,0.211 0.082,0.41 0.109,0.606 -0.449,0.183 -0.898,0.316 -1.336,0.539 -9.015,4.742 -12.48,15.894 -7.742,24.914 2.781,5.273 7.766,8.57 13.211,9.515 0.414,1.215 0.902,2.418 1.516,3.586 6.574,12.508 22.047,17.317 34.55,10.735 4.676,-2.457 8.473,-6.309 10.86,-11.016 -2.313,-5.598 -3.504,-11.59 -3.504,-17.645"
         style="fill:#b68935;fill-opacity:1;fill-rule:nonzero;stroke:none"
         id="path56" />
      <path
         d="m 635.223,296.684 c 0.668,-2.758 1.011,-5.59 1.019,-8.43 0.008,-14.57 -8.695,-27.738 -22.105,-33.442 4.718,-6.429 7.258,-14.199 7.254,-22.175 0,-20.817 -16.883,-37.692 -37.696,-37.692 -20.832,0 -37.707,16.875 -37.707,37.692 0,0.789 0.074,1.558 0.117,2.332 -5.73,-1.926 -11.734,-2.91 -17.777,-2.914 -31.043,0 -56.203,25.16 -56.203,56.199 0,31.039 25.164,56.195 56.203,56.195 0.516,0 1.016,-0.054 1.527,-0.07 -3.273,10.84 -1.222,22.59 5.528,31.68 6.75,9.093 17.406,14.453 28.726,14.457 19.77,0 35.797,-16.028 35.797,-35.789 0,-3.641 -0.554,-7.262 -1.648,-10.739 0.554,0.02 1.086,0.078 1.648,0.078 20.356,0 36.864,-16.504 36.864,-36.863 -0.004,-3.562 -0.524,-7.105 -1.547,-10.519"
         style="fill:#b68935;fill-opacity:1;fill-rule:nonzero;stroke:none"
         id="path58" />
    </g>
  </g>
</svg>
